<svg width="24" height="24" viewBox="0 0 24 24" fill="none" xmlns="http://www.w3.org/2000/svg">
<g opacity="0.5">
<path fill-rule="evenodd" clip-rule="evenodd" d="M10.75 19.5C10.75 19.5 9.49999 19.5 9.49999 18.25C9.49999 17 10.75 13.25 15.75 13.25C20.75 13.25 22 17 22 18.25C22 19.5 20.75 19.5 20.75 19.5H10.75ZM15.75 12C16.7446 12 17.6984 11.6049 18.4016 10.9017C19.1049 10.1984 19.5 9.24456 19.5 8.25C19.5 7.25544 19.1049 6.30161 18.4016 5.59835C17.6984 4.89509 16.7446 4.5 15.75 4.5C14.7554 4.5 13.8016 4.89509 13.0983 5.59835C12.3951 6.30161 12 7.25544 12 8.25C12 9.24456 12.3951 10.1984 13.0983 10.9017C13.8016 11.6049 14.7554 12 15.75 12ZM8.51999 19.5C8.33469 19.1098 8.24227 18.6819 8.24999 18.25C8.24999 16.5562 9.09999 14.8125 10.67 13.6C9.88636 13.3585 9.06993 13.2405 8.24999 13.25C3.24999 13.25 1.99999 17 1.99999 18.25C1.99999 19.5 3.24999 19.5 3.24999 19.5H8.51999ZM7.62499 12C8.45379 12 9.24865 11.6708 9.8347 11.0847C10.4208 10.4987 10.75 9.7038 10.75 8.875C10.75 8.0462 10.4208 7.25134 9.8347 6.66529C9.24865 6.07924 8.45379 5.75 7.62499 5.75C6.79619 5.75 6.00133 6.07924 5.41528 6.66529C4.82923 7.25134 4.49999 8.0462 4.49999 8.875C4.49999 9.7038 4.82923 10.4987 5.41528 11.0847C6.00133 11.6708 6.79619 12 7.62499 12Z" fill="#6C6B81"/>
</g>
</svg>
