<svg width="42" height="42" viewBox="0 0 42 42" fill="none" xmlns="http://www.w3.org/2000/svg">
<g opacity="0.5">
<path fill-rule="evenodd" clip-rule="evenodd" d="M18.8126 34.125C18.8126 34.125 16.6251 34.125 16.6251 31.9375C16.6251 29.75 18.8126 23.1875 27.5626 23.1875C36.3126 23.1875 38.5001 29.75 38.5001 31.9375C38.5001 34.125 36.3126 34.125 36.3126 34.125H18.8126ZM27.5626 21C29.3031 21 30.9723 20.3086 32.203 19.0779C33.4337 17.8472 34.1251 16.178 34.1251 14.4375C34.1251 12.697 33.4337 11.0278 32.203 9.79711C30.9723 8.5664 29.3031 7.875 27.5626 7.875C25.8221 7.875 24.1529 8.5664 22.9222 9.79711C21.6915 11.0278 21.0001 12.697 21.0001 14.4375C21.0001 16.178 21.6915 17.8472 22.9222 19.0779C24.1529 20.3086 25.8221 21 27.5626 21ZM14.9101 34.125C14.5858 33.4421 14.4241 32.6934 14.4376 31.9375C14.4376 28.9734 15.9251 25.9219 18.6726 23.8C17.3013 23.3775 15.8725 23.1708 14.4376 23.1875C5.68762 23.1875 3.50012 29.75 3.50012 31.9375C3.50012 34.125 5.68762 34.125 5.68762 34.125H14.9101ZM13.3439 21C14.7943 21 16.1853 20.4238 17.2109 19.3982C18.2365 18.3727 18.8126 16.9817 18.8126 15.5312C18.8126 14.0808 18.2365 12.6898 17.2109 11.6643C16.1853 10.6387 14.7943 10.0625 13.3439 10.0625C11.8935 10.0625 10.5025 10.6387 9.47688 11.6643C8.45129 12.6898 7.87512 14.0808 7.87512 15.5312C7.87512 16.9817 8.45129 18.3727 9.47688 19.3982C10.5025 20.4238 11.8935 21 13.3439 21Z" fill="#6C6B81"/>
</g>
</svg>
