<svg width="24" height="24" viewBox="0 0 24 24" fill="none" xmlns="http://www.w3.org/2000/svg">
<g opacity="0.5">
<path d="M18 5.062V3H6V5.062H2V8C2 10.525 3.89 12.598 6.324 12.932C6.67278 13.9548 7.2914 14.8644 8.11448 15.5646C8.93756 16.2648 9.93452 16.7297 11 16.91V18C11 18.5304 10.7893 19.0391 10.4142 19.4142C10.0391 19.7893 9.53043 20 9 20H8V22H16V20H15C14.4696 20 13.9609 19.7893 13.5858 19.4142C13.2107 19.0391 13 18.5304 13 18V16.91C14.0654 16.7294 15.0623 16.2645 15.8853 15.5643C16.7084 14.8642 17.327 13.9547 17.676 12.932C20.11 12.598 22 10.525 22 8V5.062H18ZM4 8V7.062H6V10.828C5.41549 10.6207 4.90946 10.2376 4.55137 9.73128C4.19327 9.22494 4.00067 8.62017 4 8ZM20 8C19.9992 8.62038 19.8065 9.22532 19.4485 9.73195C19.0904 10.2386 18.5845 10.6221 18 10.83V7.06H20V8Z" fill="#78778B"/>
</g>
</svg>
