<svg width="70" height="70" viewBox="0 0 76 70" fill="none" xmlns="http://www.w3.org/2000/svg">
<g opacity="0.24" filter="url(#filter0_f)">
<ellipse cx="40.9614" cy="35.2544" rx="6.77533" ry="6.68935" fill="#FF7EFA" fill-opacity="0.98"/>
</g>
<path d="M29.2124 55.5523L36.1007 51.5239V43.6122L29.2124 47.763V55.5523Z" fill="url(#paint0_linear)"/>
<path d="M29.216 55.6132L22.6318 51.8917V43.726L29.216 47.8311V55.6132Z" fill="url(#paint1_linear)"/>
<path opacity="0.4" d="M28.1725 53.7298L23.6753 51.1879V45.6105L28.1725 48.4144V53.7298Z" stroke="url(#paint2_linear)" stroke-width="0.864"/>
<path opacity="0.405357" d="M29.3515 45.6595L25.9674 43.7232L12 19H29.9358L32.2522 43.7232L29.3515 45.6595Z" fill="url(#paint3_linear)"/>
<path opacity="0.405357" d="M32.252 43.7483L39.0203 20.8134H25.9673L30.8017 46.6151L32.252 43.7483Z" fill="url(#paint4_linear)"/>
<path d="M35.7015 34.1938C36.511 33.6659 37.081 33.6084 37.4285 33.8531L37.9769 34.1396L37.8484 34.3245C38.2678 35.5765 37.1853 38.4314 34.9134 39.7886C34.4351 40.0743 34.0424 40.2178 33.7292 40.247L33.6101 40.4182L33.2146 40.1655C32.0149 39.5516 33.1498 35.858 35.7015 34.1938Z" fill="#D7911D"/>
<path d="M36.3619 34.465C33.0399 36.6404 31.944 42.243 35.4736 40.1259C39.0033 38.0087 39.6839 32.2896 36.3619 34.465Z" fill="url(#paint5_linear)"/>
<path opacity="0.4" d="M36.1841 35.3238C33.8054 36.9325 33.0676 40.9539 35.595 39.3883C38.1225 37.8226 38.5629 33.7151 36.1841 35.3238Z" stroke="#D7911D" stroke-width="0.5"/>
<path d="M19.0855 33.0494C18.1312 33.2024 17.5871 33.0231 17.3693 32.6582L16.9847 32.1734L17.1774 32.0568C17.3035 30.7425 19.4536 28.5747 22.0811 28.2589C22.6343 28.1924 23.0514 28.2211 23.3494 28.3217L23.5277 28.2138L23.7863 28.6056C24.6326 29.6543 22.0935 32.567 19.0855 33.0494Z" fill="#D7911D"/>
<path d="M18.5923 32.5346C22.5119 31.8984 25.7919 27.2259 21.7063 27.7244C17.6207 28.2229 14.6727 33.1707 18.5923 32.5346Z" fill="url(#paint6_linear)"/>
<path opacity="0.4" d="M19.1037 31.8211C21.9311 31.3189 24.2408 27.9453 21.295 28.3476C18.3493 28.7499 16.2763 32.3232 19.1037 31.8211Z" stroke="#D7911D" stroke-width="0.5"/>
<path d="M33.7237 26.3134C33.7209 25.6526 33.9048 25.3175 34.1825 25.2292L34.5617 25.0483L34.6219 25.1951C35.523 25.4848 36.798 27.2585 36.7322 29.0614C36.7184 29.441 36.6531 29.7149 36.5506 29.898L36.6064 30.0339L36.3056 30.1453C35.4837 30.5461 33.7325 28.3963 33.7237 26.3134Z" fill="#D7911D"/>
<path d="M34.1067 26.1069C34.1234 28.8222 37.0189 31.7416 37.1161 28.937C37.2132 26.1324 34.09 23.3916 34.1067 26.1069Z" fill="url(#paint7_linear)"/>
<path opacity="0.3" d="M34.4391 26.4222C34.4521 28.5333 36.7033 30.803 36.7788 28.6226C36.8543 26.4421 34.4261 24.3112 34.4391 26.4222Z" stroke="#D7911D" stroke-width="0.5"/>
<path d="M22.6318 43.7888L29.3935 40.079L35.998 43.6749L29.2228 47.8085L22.6318 43.7888Z" fill="url(#paint8_linear)"/>
<path d="M25.98 43.8765L29.367 42.0166L32.6754 43.8193L29.2816 45.8917L25.98 43.8765Z" fill="url(#paint9_linear)"/>
<g opacity="0.405357" filter="url(#filter1_f)">
<ellipse cx="35.4461" cy="50.029" rx="4.32893" ry="4.274" fill="#FFC37E" fill-opacity="0.98"/>
</g>
<g opacity="0.405357" filter="url(#filter2_f)">
<ellipse cx="21.3792" cy="44.9431" rx="4.11359" ry="4.06139" fill="#FF7E95" fill-opacity="0.98"/>
</g>
<path d="M29.4434 43.7266V37.5468L31.9668 35.5995C32.1788 35.4359 32.303 35.1833 32.303 34.9155V31.1896" stroke="url(#paint10_linear)" stroke-width="0.864"/>
<path d="M29.4333 37.526V35.4112C29.4333 34.934 29.0464 34.5472 28.5693 34.5472H27.019V31.3033" stroke="url(#paint11_linear)" stroke-width="0.864"/>
<ellipse cx="27.0766" cy="31.3604" rx="0.519471" ry="0.51288" fill="url(#paint12_linear)"/>
<ellipse cx="32.2709" cy="31.3604" rx="0.519471" ry="0.51288" fill="url(#paint13_linear)"/>
<ellipse cx="29.5009" cy="37.4007" rx="0.519471" ry="0.51288" fill="url(#paint14_linear)"/>
<path d="M22.2139 35.7032C22.6 34.9526 23.0073 34.6684 23.3761 34.7127L23.9153 34.705L23.8975 34.9028C24.755 35.6999 25.1647 38.3742 24.0275 40.384C23.7881 40.8071 23.5522 41.0836 23.3274 41.2379L23.3109 41.421L22.9022 41.3907C21.7283 41.4175 20.9968 38.0691 22.2139 35.7032Z" fill="#D7911D"/>
<path d="M22.7728 35.6681C21.1922 38.7551 22.7759 43.5714 24.539 40.4423C26.3022 37.3133 24.3534 32.5811 22.7728 35.6681Z" fill="url(#paint15_linear)"/>
<path opacity="0.4" d="M22.9994 36.2882C21.8297 38.5726 23.0016 42.1366 24.3063 39.8211C25.6111 37.5056 24.169 34.0038 22.9994 36.2882Z" stroke="#D7911D" stroke-width="0.5"/>
<path opacity="0.2" fill-rule="evenodd" clip-rule="evenodd" d="M25.1741 38.5187C25.1718 38.5197 25.1696 38.5208 25.1673 38.5218C24.0935 39.0251 23.1895 39.8628 22.5509 40.744C23.0009 41.6522 23.7519 41.838 24.5387 40.4417C24.879 39.8379 25.081 39.1743 25.1741 38.5187Z" fill="black"/>
<defs>
<filter id="filter0_f" x="6.18604" y="0.565063" width="69.5507" height="69.3787" filterUnits="userSpaceOnUse" color-interpolation-filters="sRGB">
<feFlood flood-opacity="0" result="BackgroundImageFix"/>
<feBlend mode="normal" in="SourceGraphic" in2="BackgroundImageFix" result="shape"/>
<feGaussianBlur stdDeviation="14" result="effect1_foregroundBlur"/>
</filter>
<filter id="filter1_f" x="24.1172" y="38.755" width="22.6579" height="22.548" filterUnits="userSpaceOnUse" color-interpolation-filters="sRGB">
<feFlood flood-opacity="0" result="BackgroundImageFix"/>
<feBlend mode="normal" in="SourceGraphic" in2="BackgroundImageFix" result="shape"/>
<feGaussianBlur stdDeviation="3.5" result="effect1_foregroundBlur"/>
</filter>
<filter id="filter2_f" x="0.265625" y="23.8817" width="42.2272" height="42.1228" filterUnits="userSpaceOnUse" color-interpolation-filters="sRGB">
<feFlood flood-opacity="0" result="BackgroundImageFix"/>
<feBlend mode="normal" in="SourceGraphic" in2="BackgroundImageFix" result="shape"/>
<feGaussianBlur stdDeviation="8.5" result="effect1_foregroundBlur"/>
</filter>
<linearGradient id="paint0_linear" x1="33.2777" y1="29.7252" x2="11.6543" y2="37.299" gradientUnits="userSpaceOnUse">
<stop stop-color="#EDB64F"/>
<stop offset="1" stop-color="#DD26BC"/>
</linearGradient>
<linearGradient id="paint1_linear" x1="32.5668" y1="49.7203" x2="19.5396" y2="41.8553" gradientUnits="userSpaceOnUse">
<stop stop-color="#6B1B98"/>
<stop offset="1" stop-color="#DE0F62"/>
</linearGradient>
<linearGradient id="paint2_linear" x1="23.1606" y1="43.5807" x2="17.612" y2="51.1341" gradientUnits="userSpaceOnUse">
<stop stop-color="#FFD599"/>
<stop offset="0.482372" stop-color="#D178A0"/>
<stop offset="1" stop-color="#FFCE08"/>
</linearGradient>
<linearGradient id="paint3_linear" x1="17.0926" y1="21.8435" x2="17.0926" y2="56.7735" gradientUnits="userSpaceOnUse">
<stop stop-color="#FDF27D" stop-opacity="0.01"/>
<stop offset="0.4936" stop-color="#FCF17B" stop-opacity="0.240234"/>
<stop offset="1" stop-color="#FBF079"/>
</linearGradient>
<linearGradient id="paint4_linear" x1="23.4623" y1="23.701" x2="23.4623" y2="48.7448" gradientUnits="userSpaceOnUse">
<stop stop-color="#FDF27D" stop-opacity="0.01"/>
<stop offset="0.4936" stop-color="#FCF17B" stop-opacity="0.240234"/>
<stop offset="1" stop-color="#FBF079"/>
</linearGradient>
<linearGradient id="paint5_linear" x1="32.4927" y1="32.815" x2="29.6592" y2="41.1247" gradientUnits="userSpaceOnUse">
<stop stop-color="#FFF585"/>
<stop offset="1" stop-color="#DCC613"/>
</linearGradient>
<linearGradient id="paint6_linear" x1="21.4559" y1="35.6156" x2="27.4243" y2="29.1769" gradientUnits="userSpaceOnUse">
<stop stop-color="#FFF585"/>
<stop offset="1" stop-color="#DCC613"/>
</linearGradient>
<linearGradient id="paint7_linear" x1="31.651" y1="27.5364" x2="35.2308" y2="32.7013" gradientUnits="userSpaceOnUse">
<stop stop-color="#FFF585"/>
<stop offset="1" stop-color="#DCC613"/>
</linearGradient>
<linearGradient id="paint8_linear" x1="34.0184" y1="34.9131" x2="20.7614" y2="49.9491" gradientUnits="userSpaceOnUse">
<stop stop-color="#EDB64F"/>
<stop offset="0.977895" stop-color="#E64082"/>
</linearGradient>
<linearGradient id="paint9_linear" x1="31.3453" y1="41.5936" x2="23.1882" y2="41.5936" gradientUnits="userSpaceOnUse">
<stop stop-color="#FFD066"/>
<stop offset="1" stop-color="#CE1D64"/>
</linearGradient>
<linearGradient id="paint10_linear" x1="29.1161" y1="28.0553" x2="21.4566" y2="32.3493" gradientUnits="userSpaceOnUse">
<stop stop-color="#FFD599"/>
<stop offset="0.482372" stop-color="#D178A0"/>
<stop offset="1" stop-color="#FFE26F"/>
</linearGradient>
<linearGradient id="paint11_linear" x1="25.6807" y1="30.4714" x2="21.7437" y2="42.5177" gradientUnits="userSpaceOnUse">
<stop stop-color="#FFD599"/>
<stop offset="1" stop-color="#A014A8"/>
</linearGradient>
<linearGradient id="paint12_linear" x1="29.03" y1="32.7591" x2="28.0143" y2="29.9193" gradientUnits="userSpaceOnUse">
<stop stop-color="#FFFCF5"/>
<stop offset="1" stop-color="#FFEFAD"/>
</linearGradient>
<linearGradient id="paint13_linear" x1="34.2243" y1="32.7591" x2="33.2086" y2="29.9193" gradientUnits="userSpaceOnUse">
<stop stop-color="#FFFCF5"/>
<stop offset="1" stop-color="#FFEFAD"/>
</linearGradient>
<linearGradient id="paint14_linear" x1="31.4543" y1="38.7993" x2="30.4386" y2="35.9596" gradientUnits="userSpaceOnUse">
<stop stop-color="#FFFCF5"/>
<stop offset="1" stop-color="#FFEFAD"/>
</linearGradient>
<linearGradient id="paint15_linear" x1="19.1289" y1="36.0111" x2="20.4434" y2="43.6822" gradientUnits="userSpaceOnUse">
<stop stop-color="#FFF585"/>
<stop offset="1" stop-color="#DCC613"/>
</linearGradient>
</defs>
</svg>
