<svg width="85" height="83" viewBox="0 0 85 83" fill="none" xmlns="http://www.w3.org/2000/svg">
<path d="M33 0H0L85 83V51L33 0Z" fill="#2CC573"/>
<path d="M35.9898 15.0428L33.9462 17.1397L36.9626 20.0794L36.2424 20.8185L33.2259 17.8787L30.8557 20.3108L29.9963 19.4733L35.859 13.4576L40.1044 17.595L39.3757 18.3426L35.9898 15.0428ZM39.6861 20.0358L40.5111 20.8398L36.0722 25.3946L35.2472 24.5906L39.6861 20.0358ZM40.9529 19.5613C40.7925 19.4049 40.7081 19.2221 40.6997 19.0129C40.6971 18.8093 40.7684 18.633 40.9135 18.484C41.0587 18.3351 41.2331 18.2593 41.4367 18.2567C41.6517 18.2539 41.8394 18.3307 41.9998 18.487C42.1602 18.6434 42.2417 18.8233 42.2443 19.027C42.2583 19.2305 42.1927 19.4067 42.0475 19.5556C41.8967 19.7103 41.7139 19.7891 41.4989 19.7918C41.2953 19.7945 41.1133 19.7176 40.9529 19.5613ZM44.5603 24.7022C45.1389 25.2662 45.4326 25.8819 45.4412 26.5493C45.4611 27.2166 45.1556 27.874 44.5246 28.5214L41.9702 31.1425L41.1452 30.3385L43.6075 27.8119C44.0374 27.3707 44.2553 26.9352 44.261 26.5051C44.2668 26.0751 44.072 25.6674 43.6767 25.2822C43.2298 24.8467 42.7491 24.6351 42.2344 24.6473C41.7253 24.6539 41.2335 24.9007 40.7589 25.3877L38.4725 27.7338L37.6474 26.9298L42.0863 22.375L42.877 23.1455L42.2069 23.833C42.602 23.7601 43.0013 23.7973 43.4049 23.9449C43.8142 24.098 44.1993 24.3505 44.5603 24.7022ZM47.9359 28.0757L48.7609 28.8798L44.322 33.4345L43.497 32.6305L47.9359 28.0757ZM49.2027 27.6012C49.0422 27.4448 48.9579 27.2621 48.9495 27.0529C48.9469 26.8492 49.0182 26.6729 49.1633 26.524C49.3085 26.375 49.4829 26.2992 49.6865 26.2966C49.9015 26.2938 50.0892 26.3706 50.2496 26.5269C50.41 26.6833 50.4915 26.8633 50.4941 27.0669C50.5081 27.2704 50.4425 27.4466 50.2973 27.5956C50.1465 27.7503 49.9637 27.829 49.7487 27.8318C49.5451 27.8344 49.3631 27.7575 49.2027 27.6012ZM47.1533 36.2943C46.7809 35.9314 46.4702 35.5337 46.2214 35.1013C45.9781 34.6632 45.8345 34.2718 45.7905 33.9273L46.7707 33.6092C46.8317 33.9478 46.9635 34.2997 47.1662 34.6648C47.3689 35.0299 47.6164 35.3549 47.9086 35.6396C48.6304 36.3432 49.1924 36.4887 49.5944 36.0762C49.7284 35.9387 49.7858 35.7823 49.7666 35.6072C49.7473 35.4321 49.68 35.2547 49.5645 35.0752C49.4604 34.8955 49.296 34.6515 49.0714 34.3433C48.7606 33.9286 48.524 33.5696 48.3617 33.2662C48.2051 32.9684 48.1303 32.6497 48.1372 32.3102C48.1442 31.9707 48.304 31.6405 48.6166 31.3196C49.0187 30.9071 49.5116 30.7452 50.0954 30.8338C50.6849 30.9168 51.2689 31.2402 51.8476 31.8041C52.1512 32.1001 52.4186 32.4332 52.6496 32.8036C52.8807 33.174 53.0322 33.5172 53.1042 33.8331L52.1153 34.1428C51.9774 33.5393 51.6564 32.9918 51.1522 32.5005C50.8027 32.1599 50.4805 31.9575 50.1855 31.8934C49.8904 31.8293 49.6508 31.8918 49.4666 32.0809C49.3214 32.2299 49.2585 32.3976 49.2779 32.584C49.2972 32.7704 49.3619 32.9563 49.4717 33.1416C49.5873 33.3324 49.7575 33.5877 49.9823 33.9072C50.2875 34.3276 50.5156 34.6839 50.6664 34.9761C50.8286 35.2682 50.9062 35.5784 50.8991 35.9066C50.892 36.2348 50.7377 36.5536 50.4362 36.863C50.0342 37.2755 49.5355 37.4318 48.9402 37.332C48.3562 37.2321 47.7606 36.8861 47.1533 36.2943ZM57.1154 36.938C57.6941 37.5019 57.9877 38.1176 57.9963 38.7851C58.0162 39.4524 57.7107 40.1097 57.0798 40.7571L54.5253 43.3783L53.7003 42.5742L56.1626 40.0476C56.5925 39.6065 56.8104 39.1709 56.8162 38.7409C56.8219 38.3108 56.6272 37.9032 56.2319 37.5179C55.785 37.0824 55.3042 36.8708 54.7895 36.8831C54.2805 36.8896 53.7886 37.1364 53.314 37.6234L51.0276 39.9695L50.2026 39.1655L56.417 32.7888L57.242 33.5929L54.8383 36.0593C55.2224 36.0091 55.6105 36.0579 56.0028 36.2055C56.4008 36.3588 56.7717 36.603 57.1154 36.938ZM62.3881 46.6509C62.3267 46.714 62.24 46.7915 62.128 46.8834L58.4326 43.282C58.0934 43.7333 57.9526 44.2273 58.0105 44.764C58.0796 45.3006 58.3376 45.7866 58.7845 46.2222C59.3288 46.7526 59.9457 46.9964 60.6354 46.9536L60.5716 47.9303C60.1308 47.9699 59.6944 47.902 59.2621 47.7265C58.8356 47.5566 58.4333 47.2874 58.0552 46.9189C57.5739 46.4499 57.242 45.9365 57.0595 45.3788C56.8825 44.8154 56.864 44.2555 57.0039 43.6993C57.1495 43.1487 57.4401 42.6499 57.8756 42.203C58.3056 41.7619 58.791 41.4586 59.332 41.2932C59.8787 41.1334 60.4188 41.1236 60.9524 41.2639C61.4974 41.4039 61.9875 41.6861 62.4229 42.1105C62.8584 42.5348 63.1474 43.012 63.29 43.5419C63.4439 44.0717 63.4423 44.6064 63.2852 45.1458C63.1338 45.6909 62.8348 46.1926 62.3881 46.6509ZM61.7445 42.8066C61.3492 42.4213 60.8997 42.2178 60.3959 42.196C59.8978 42.1798 59.4361 42.3441 59.0105 42.6891L61.9325 45.5367C62.2607 45.1081 62.4075 44.6423 62.3727 44.1393C62.3493 43.6361 62.1399 43.1919 61.7445 42.8066ZM71.8508 47.83L65.6363 54.2066L64.8457 53.4361L65.5492 52.7142C65.1202 52.7876 64.7011 52.7534 64.292 52.6116C63.8828 52.4698 63.5092 52.2342 63.1712 51.9047C62.73 51.4748 62.4296 50.9922 62.27 50.4568C62.1103 49.9214 62.1006 49.3812 62.2406 48.8363C62.392 48.2913 62.691 47.7896 63.1377 47.3312C63.5844 46.8729 64.0754 46.5639 64.6108 46.4043C65.1519 46.2502 65.6922 46.2461 66.2315 46.3919C66.7708 46.5377 67.2611 46.8255 67.7022 47.2555C68.0288 47.5737 68.2681 47.9299 68.4203 48.3239C68.5781 48.7122 68.6313 49.1161 68.5802 49.5354L71.0258 47.0259L71.8508 47.83ZM63.9435 51.2499C64.2299 51.529 64.5548 51.7172 64.9181 51.8144C65.287 51.9058 65.6546 51.8954 66.0209 51.7832C66.3928 51.6652 66.7323 51.4487 67.0393 51.1336C67.3464 50.8185 67.5514 50.4764 67.6541 50.1074C67.7624 49.7326 67.7633 49.3648 67.6568 49.0042C67.5504 48.6435 67.3539 48.3235 67.0674 48.0443C66.7752 47.7596 66.4475 47.5686 66.0842 47.4715C65.7266 47.3799 65.359 47.3903 64.9814 47.5027C64.6151 47.6149 64.2784 47.8285 63.9713 48.1436C63.6642 48.4587 63.4565 48.8037 63.3482 49.1785C63.2512 49.5531 63.2503 49.9208 63.3455 50.2817C63.4519 50.6424 63.6513 50.9651 63.9435 51.2499Z" fill="white"/>
</svg>

