<svg width="110" height="110" viewBox="0 0 110 110" fill="none" xmlns="http://www.w3.org/2000/svg">
<circle cx="55" cy="55" r="55" fill="#E9F4FC"/>
<path d="M82.5001 49.5V38.5C82.5001 37.0413 81.9206 35.6424 80.8891 34.6109C79.8577 33.5795 78.4587 33 77.0001 33H33.0001C31.5414 33 30.1424 33.5795 29.111 34.6109C28.0795 35.6424 27.5001 37.0413 27.5001 38.5V49.5C28.9588 49.5 30.3577 50.0795 31.3891 51.1109C32.4206 52.1424 33.0001 53.5413 33.0001 55C33.0001 56.4587 32.4206 57.8576 31.3891 58.8891C30.3577 59.9205 28.9588 60.5 27.5001 60.5V71.5C27.5001 74.525 29.9751 77 33.0001 77H77.0001C80.0251 77 82.5001 74.525 82.5001 71.5V60.5C79.4751 60.5 77.0001 58.025 77.0001 55C77.0001 51.975 79.4751 49.5 82.5001 49.5ZM77.0001 45.485C73.7276 47.3825 71.5001 50.9575 71.5001 55C71.5001 59.0425 73.7276 62.6175 77.0001 64.515V71.5H33.0001V64.515C36.2726 62.6175 38.5001 59.0425 38.5001 55C38.5001 50.875 36.3001 47.3825 33.0001 45.485V38.5H77.0001V45.485ZM52.2501 63.25H57.7501V68.75H52.2501V63.25ZM52.2501 52.25H57.7501V57.75H52.2501V52.25ZM52.2501 41.25H57.7501V46.75H52.2501V41.25Z" fill="#0085FF"/>
</svg>
