<svg width="110" height="110" viewBox="0 0 110 110" fill="none" xmlns="http://www.w3.org/2000/svg">
<circle cx="55" cy="55" r="55" fill="#E9F4FC" fill-opacity="0.1"/>
<path d="M82.5 49.5V38.5C82.5 37.0413 81.9205 35.6424 80.8891 34.6109C79.8576 33.5795 78.4587 33 77 33H33C31.5413 33 30.1424 33.5795 29.1109 34.6109C28.0795 35.6424 27.5 37.0413 27.5 38.5V49.5C28.9587 49.5 30.3576 50.0795 31.3891 51.1109C32.4205 52.1424 33 53.5413 33 55C33 56.4587 32.4205 57.8576 31.3891 58.8891C30.3576 59.9205 28.9587 60.5 27.5 60.5V71.5C27.5 74.525 29.975 77 33 77H77C80.025 77 82.5 74.525 82.5 71.5V60.5C79.475 60.5 77 58.025 77 55C77 51.975 79.475 49.5 82.5 49.5ZM77 45.485C73.7275 47.3825 71.5 50.9575 71.5 55C71.5 59.0425 73.7275 62.6175 77 64.515V71.5H33V64.515C36.2725 62.6175 38.5 59.0425 38.5 55C38.5 50.875 36.3 47.3825 33 45.485V38.5H77V45.485ZM52.25 63.25H57.75V68.75H52.25V63.25ZM52.25 52.25H57.75V57.75H52.25V52.25ZM52.25 41.25H57.75V46.75H52.25V41.25Z" fill="#0085FF"/>
</svg>
