<svg width="26" height="32" viewBox="0 0 26 32" fill="none" xmlns="http://www.w3.org/2000/svg">
<path d="M19.8999 6.30682C20.8277 5.31276 21.4374 4.12763 21.4374 2.81226C21.4374 2.29407 21.018 1.87476 20.4999 1.87476C19.4984 1.87476 18.4099 2.10582 17.3574 2.50107C17.5487 3.15019 17.6874 3.86132 17.6874 4.68726C17.6874 5.10819 17.6394 5.49007 17.5841 5.86438C18.345 5.96301 19.1236 6.10676 19.8999 6.30682Z" fill="#FFA14E"/>
<path d="M5.49951 1.87476C4.98132 1.87476 4.56201 2.29407 4.56201 2.81226C4.56201 4.12763 5.17164 5.31282 6.09951 6.30682C6.87576 6.10676 7.65464 5.96307 8.41532 5.86438C8.36007 5.49007 8.31201 5.10807 8.31201 4.68726C8.31201 3.86119 8.4507 3.14994 8.64182 2.50101C7.58945 2.10582 6.50089 1.87476 5.49951 1.87476Z" fill="#FFA14E"/>
<path d="M15.7245 5.68644C15.776 5.37387 15.8124 5.04555 15.8124 4.68711C15.8124 1.53488 13.5693 0.184487 13.4741 0.127736C13.1811 -0.0425787 12.8186 -0.0425787 12.5255 0.127736C12.4304 0.184487 10.1873 1.53494 10.1873 4.68711C10.1873 5.04555 10.2236 5.37387 10.2751 5.68644C11.3343 5.62475 12.2789 5.62462 12.9998 5.62462C13.7207 5.62462 14.6653 5.62481 15.7245 5.68644Z" fill="#FFA14E"/>
<path d="M0.812012 15.0624C0.812012 23.2638 8.73787 32.0001 12.9997 32.0001C17.2615 32.0001 25.1873 23.2638 25.1873 15.0624C25.1873 7.56226 16.9557 7.49976 12.9997 7.49976C9.04362 7.49976 0.812012 7.56226 0.812012 15.0624ZM6.43709 15.9999C6.43709 16.5181 6.01777 16.9374 5.49958 16.9374C4.98138 16.9374 4.56206 16.5181 4.56206 15.9999V14.1248C4.56206 13.6067 4.98138 13.1873 5.49958 13.1873C6.01777 13.1873 6.43709 13.6067 6.43709 14.1248V15.9999ZM19.5623 14.1248C19.5623 13.6067 19.9816 13.1873 20.4998 13.1873C21.018 13.1873 21.4373 13.6067 21.4373 14.1248V15.9999C21.4373 16.5181 21.018 16.9374 20.4998 16.9374C19.9816 16.9374 19.5623 16.5181 19.5623 15.9999V14.1248ZM10.1871 21.625C10.1871 22.1431 9.76782 22.5625 9.24963 22.5625C8.73143 22.5625 8.31211 22.1431 8.31211 21.625V19.7499C8.31211 19.2317 8.73143 18.8124 9.24963 18.8124C9.76782 18.8124 10.1871 19.2317 10.1871 19.7499V21.625ZM13.9372 27.25C13.9372 27.7682 13.5179 28.1875 12.9997 28.1875C12.4815 28.1875 12.0622 27.7682 12.0622 27.25V25.375C12.0622 24.8568 12.4815 24.4375 12.9997 24.4375C13.5179 24.4375 13.9372 24.8568 13.9372 25.375V27.25ZM15.8122 19.7499C15.8122 19.2317 16.2315 18.8124 16.7497 18.8124C17.2679 18.8124 17.6872 19.2317 17.6872 19.7499V21.625C17.6872 22.1431 17.2679 22.5625 16.7497 22.5625C16.2315 22.5625 15.8122 22.1431 15.8122 21.625V19.7499ZM13.9372 14.1248V15.9999C13.9372 16.5181 13.5179 16.9374 12.9997 16.9374C12.4815 16.9374 12.0622 16.5181 12.0622 15.9999V14.1248C12.0622 13.6067 12.4815 13.1873 12.9997 13.1873C13.5179 13.1873 13.9372 13.6067 13.9372 14.1248Z" fill="#FFA14E"/>
</svg>
